<svg width="30" height="68" viewBox="0 0 30 68" fill="none" xmlns="http://www.w3.org/2000/svg">
<path d="M0 34.1007C0 34.1007 7.32316 31.9186 11.2067 15.2028L14.9422 67.8686C11.2067 45.2704 0 34.1007 0 34.1007Z" fill="white"/>
<path d="M29.8844 34.1007C29.8844 34.1007 22.5612 31.9186 18.6777 15.2028L14.9422 67.8686C18.6777 45.2704 29.8844 34.1007 29.8844 34.1007Z" fill="white"/>
<path d="M14.9052 56.5452C14.8819 56.0461 14.8489 55.3233 14.8092 54.4222C14.7295 52.61 14.6231 50.077 14.5168 47.194C14.3041 41.428 14.0915 34.2626 14.0915 28.6639C14.0915 23.0651 14.3041 15.8997 14.5168 10.1337C14.6231 7.25077 14.7295 4.71777 14.8092 2.90551C14.8489 2.00448 14.8819 1.28161 14.9052 0.782486C14.9284 1.28161 14.9615 2.00448 15.0011 2.90551C15.0809 4.71777 15.1872 7.25077 15.2935 10.1337C15.5062 15.8997 15.7189 23.0651 15.7189 28.6639C15.7189 34.2626 15.5062 41.428 15.2935 47.194C15.1872 50.077 15.0809 52.61 15.0011 54.4222C14.9615 55.3233 14.9284 56.0461 14.9052 56.5452Z" fill="white" stroke="#3E3E3E" stroke-width="0.0739713"/>
</svg>
